<svg width="1702" height="956" viewBox="0 0 1702 956" fill="none" xmlns="http://www.w3.org/2000/svg">
<g clip-path="url(#clip0_15_2)">
<g clip-path="url(#clip1_15_2)">
<path d="M1903 -113H-201V1069H1903V-113Z" fill="url(#paint0_linear_15_2)"/>
<path d="M634.093 451.737C720.593 455.237 760.593 329.737 818.59 292.238C838.09 279.63 872.09 292.238 882.59 304.238C887.45 309.794 910.59 338.737 882.59 382.737C855.7 424.996 766.593 427.737 755.593 478.237C743.252 534.892 809.99 586.097 814.59 612.237C828.59 691.737 732.593 723.737 682.093 706.237C631.593 688.737 570.093 618.237 431.093 664.737C346.935 692.891 340.248 795.237 326.093 830.237C291.914 914.75 217.093 947.39 120.093 975.24C-31.407 1018.74 -133.033 922.74 -167.408 851.237C-192.407 799.238 -207.907 562.737 -45.407 433.237C48.519 358.385 238.093 322.237 386.093 314.737C534.093 307.237 557.655 448.645 634.093 451.737Z" fill="#012030"/>
<path d="M839.5 518.717C825.9 434.717 889.5 411.718 912.5 397.218C990.5 331.218 937.19 204.788 1004.5 150.217C1107.5 66.717 1164 216.217 1302.5 208.717C1419.33 202.391 1477.5 150.217 1546 53.717C1607.63 -33.0976 1695 -44.7825 1771 -15.7825C1847 13.218 1891.96 104.076 1885 169.718C1877 245.218 1818.71 326.998 1729.5 309.718C1634 291.218 1551 316.718 1502.5 331.218C1452.35 346.211 1327.5 428.717 1270.5 462.217C1211.25 497.037 1131.5 476.217 1076 479.717C1020.5 483.217 986.5 572.217 956.5 671.217C926.5 770.217 830 724.5 830 687.717C830 615.736 859.3 641 839.5 518.717Z" fill="#012030"/>
</g>
</g>
<defs>
<linearGradient id="paint0_linear_15_2" x1="851" y1="-113" x2="851" y2="1069" gradientUnits="userSpaceOnUse">
<stop stop-color="#C7C7F4"/>
<stop offset="1" stop-color="#B2D0FD"/>
</linearGradient>
<clipPath id="clip0_15_2">
<rect width="1702" height="956" fill="white"/>
</clipPath>
<clipPath id="clip1_15_2">
<rect width="2104" height="1182" fill="white" transform="translate(-201 -113)"/>
</clipPath>
</defs>
</svg>
