<svg width="2104" height="1182" viewBox="0 0 2104 1182" fill="none" xmlns="http://www.w3.org/2000/svg">
<rect width="2104" height="1182" fill="url(#paint0_linear_1_2)"/>
<path d="M835.093 564.737C921.593 568.237 961.593 442.737 1019.59 405.238C1039.09 392.63 1073.09 405.238 1083.59 417.238C1088.45 422.794 1111.59 451.737 1083.59 495.737C1056.7 537.996 967.593 540.737 956.593 591.237C944.252 647.892 1010.99 699.097 1015.59 725.237C1029.59 804.737 933.593 836.737 883.093 819.237C832.593 801.737 771.093 731.237 632.093 777.737C547.935 805.891 541.248 908.237 527.093 943.237C492.914 1027.75 418.093 1060.39 321.093 1088.24C169.593 1131.74 67.9672 1035.74 33.5924 964.237C8.59258 912.238 -6.90698 675.737 155.593 546.237C249.519 471.385 439.093 435.237 587.093 427.737C735.093 420.237 758.655 561.645 835.093 564.737Z" fill="#012030"/>
<path d="M1040.5 631.717C1026.9 547.717 1090.5 524.718 1113.5 510.218C1191.5 444.218 1138.19 317.788 1205.5 263.217C1308.5 179.717 1365 329.217 1503.5 321.717C1620.33 315.391 1678.5 263.217 1747 166.717C1808.63 79.9024 1896 68.2175 1972 97.2175C2048 126.218 2092.96 217.076 2086 282.718C2078 358.218 2019.71 439.998 1930.5 422.718C1835 404.218 1752 429.718 1703.5 444.218C1653.35 459.211 1528.5 541.717 1471.5 575.217C1412.25 610.037 1332.5 589.217 1277 592.717C1221.5 596.217 1187.5 685.217 1157.5 784.217C1127.5 883.217 1031 837.5 1031 800.717C1031 728.736 1060.3 754 1040.5 631.717Z" fill="#012030"/>
<defs>
<linearGradient id="paint0_linear_1_2" x1="1052" y1="0" x2="1052" y2="1182" gradientUnits="userSpaceOnUse">
<stop stop-color="#C7C7F4"/>
<stop offset="1" stop-color="#B2D0FD"/>
</linearGradient>
</defs>
</svg>
